<?xml version="1.0" encoding="utf-8"?><svg xmlns="http://www.w3.org/2000/svg" xmlns:xlink="http://www.w3.org/1999/xlink"><symbol viewBox="0 0 160 118.194" id="arrow" xmlns="http://www.w3.org/2000/svg"><path data-name="Path 130" class="acls-1" d="M160 91.215L101.727 70.06l-8.344 14.056c-15.062-.071-29.071-1.633-40.8-4.544-12.775-3.159-22.48-7.812-28.32-13.454-5.489-5.289-7.509-11.253-6.1-17.394 1.269-5.679 5.529-11.464 12.072-16.864 6.06-5.005 14.1-9.691 23.494-13.809A194.689 194.689 0 0183.15 8.15a257.047 257.047 0 0131.706-5.964A269.426 269.426 0 01130.797.624c5.27-.355 10.539-.568 15.765-.6-5.137-.074-10.407.036-15.764.317s-10.8.71-16.248 1.278a282.465 282.465 0 00-33.2 5.608 234.748 234.748 0 00-32.5 9.939c-5.27 2.094-10.32 4.331-14.975 6.745A116.094 116.094 0 0020.53 31.86a72.453 72.453 0 00-10.847 9.126 39.054 39.054 0 00-7.246 10.152c-3.557 7.384-3.293 14.838 1.274 21.76C8.673 80.388 18.55 86.991 33.05 91.89a154.367 154.367 0 0025.646 6 228.241 228.241 0 0025.154 2.306l-10.759 18z"/></symbol><symbol fill="none" viewBox="0 0 22 16" id="arrow-link" xmlns="http://www.w3.org/2000/svg"><path d="M15 15l6-7-6-7M21 8H1" stroke="#9C69E2" stroke-width="2" stroke-linecap="round" stroke-linejoin="round"/></symbol><symbol viewBox="0 0 11 18" id="arrow-open" xmlns="http://www.w3.org/2000/svg"><path fill-rule="evenodd" clip-rule="evenodd" d="M5.918 8.302a1 1 0 010 1.398L.686 15.051a1 1 0 000 1.398l.801.82a1 1 0 001.43 0l7.4-7.569a1 1 0 000-1.398L8.8 6.752 2.914.732a1 1 0 00-1.43 0l-.802.819a1 1 0 000 1.398l5.235 5.353z"/></symbol><symbol fill="none" viewBox="0 0 10 6" id="arrow-small-down" xmlns="http://www.w3.org/2000/svg"><path fill-rule="evenodd" clip-rule="evenodd" d="M5.706 2.794a1 1 0 01-1.414 0L1.875.376a.884.884 0 10-1.25 1.25l3.75 3.75a.884.884 0 001.25 0l.624-.626 3.126-3.125a.884.884 0 00-1.25-1.25L5.706 2.794z" fill="#212353"/></symbol><symbol fill="none" viewBox="0 0 10 6" id="arrow-small-up" xmlns="http://www.w3.org/2000/svg"><path fill-rule="evenodd" clip-rule="evenodd" d="M4.294 3.206a1 1 0 011.414 0l2.417 2.418a.884.884 0 101.25-1.25L5.625.624a.884.884 0 00-1.25 0l-.624.626L.625 4.375a.884.884 0 101.25 1.25l2.419-2.419z" fill="#9C69E2"/></symbol><symbol fill="none" viewBox="0 0 18 11" id="arrow-up" xmlns="http://www.w3.org/2000/svg"><path fill-rule="evenodd" clip-rule="evenodd" d="M9.698 5.918a1 1 0 01-1.398 0L2.949.686a1 1 0 00-1.398 0l-.82.801a1 1 0 000 1.43l7.569 7.4a1 1 0 001.398 0l1.55-1.516 6.02-5.886a1 1 0 000-1.43L16.45.682a1 1 0 00-1.398 0L9.698 5.918z" fill="#212353"/></symbol><symbol fill="none" viewBox="0 0 49 35" id="logo" xmlns="http://www.w3.org/2000/svg"><rect y="15" width="20" height="20" rx="10" fill="#9C69E2"/><rect x="29" width="20" height="35" rx="10" fill="#F063B8"/></symbol><symbol fill="none" viewBox="0 0 49 35" id="logo-white" xmlns="http://www.w3.org/2000/svg"><rect y="15" width="20" height="20" rx="10" fill="#fff"/><rect x="29" width="20" height="35" rx="10" fill="#fff"/></symbol><symbol fill="none" viewBox="0 0 36 24" id="menu-burger" xmlns="http://www.w3.org/2000/svg"><rect width="36" height="3" rx="1.5" fill="#212353"/><rect y="10.5" width="36" height="3" rx="1.5" fill="#212353"/><rect y="21" width="36" height="3" rx="1.5" fill="#212353"/></symbol><symbol fill="none" viewBox="0 0 28 28" id="menu-cross" xmlns="http://www.w3.org/2000/svg"><rect y="25.456" width="36" height="3" rx="1.5" transform="rotate(-45 0 25.456)" fill="#212353"/><rect width="36" height="3" rx="1.5" transform="scale(-1 1) rotate(-45 16.94 46.017)" fill="#212353"/></symbol></svg>